<svg width="800" height="800" viewBox="0 0 800 800" fill="none" xmlns="http://www.w3.org/2000/svg">
  <rect width="800" height="800" rx="40" fill="#030712"/>

  <path d="M608.067 225.263L636.213 368.745L779.695 396.891L636.213 425.037L608.067 568.518L579.921 425.037L436.439 396.891L579.921 368.745L608.067 225.263Z" fill="#1f2937" opacity="0.2"/>
  <path d="M191.933 574.737L163.787 431.255L20.3049 403.109L163.787 374.963L191.933 231.482L220.079 374.963L363.561 403.109L220.079 431.255L191.933 574.737Z" fill="#1f2937" opacity="0.2"/>

  <g opacity="0.3">
    <path d="M399.99 150L419.03 331L600 350L419.03 369L399.99 550L380.95 369L200 350L380.95 331L399.99 150Z" fill="#f97316"/>
    <path d="M399.99 191.01L314.1 263.1L386.19 277.21L314.1 291.32L299.99 363.41L285.88 291.32L213.79 277.21L285.88 263.1L299.99 191.01Z" fill="#374151"/>
  </g>
</svg>
